HIERARCHY
ROOT Hips
{
	OFFSET 0.000000 0.000000 0.000000
	CHANNELS 6 Xposition Yposition Zposition Zrotation Yrotation Xrotation 
	JOINT LHipJoint
	{
		OFFSET 0.000000 0.000000 0.000000
		CHANNELS 3 Zrotation Yrotation Xrotation
		JOINT LeftUpLeg
		{
			OFFSET 1.363060 -1.794630 0.839290
			CHANNELS 3 Zrotation Yrotation Xrotation
			JOINT LeftLeg
			{
				OFFSET 2.448110 -6.726130 0.000000
				CHANNELS 3 Zrotation Yrotation Xrotation
				JOINT LeftFoot
				{
					OFFSET 2.562200 -7.039590 0.000000
					CHANNELS 3 Zrotation Yrotation Xrotation
					JOINT LeftToeBase
					{
						OFFSET 0.157640 -0.433110 2.322550
						CHANNELS 3 Zrotation Yrotation Xrotation
						End Site
						{
							OFFSET 0.000000 0.000000 0.000000
						}
					}
				}
			}
		}
	}
	JOINT RHipJoint
	{
		OFFSET 0.000000 0.000000 0.000000
		CHANNELS 3 Zrotation Yrotation Xrotation
		JOINT RightUpLeg
		{
			OFFSET -1.305520 -1.794630 0.839290
			CHANNELS 3 Zrotation Yrotation Xrotation
			JOINT RightLeg
			{
				OFFSET -2.542530 -6.985550 0.000000
				CHANNELS 3 Zrotation Yrotation Xrotation
				JOINT RightFoot
				{
					OFFSET -2.568260 -7.056230 0.000000
					CHANNELS 3 Zrotation Yrotation Xrotation
					JOINT RightToeBase
					{
						OFFSET -0.164730 -0.452590 2.363150
						CHANNELS 3 Zrotation Yrotation Xrotation
						End Site
						{
							OFFSET 0.000000 0.000000 0.000000
						}
					}
				}
			}
		}
	}
	JOINT LowerBack
	{
		OFFSET 0.000000 0.000000 0.000000
		CHANNELS 3 Zrotation Yrotation Xrotation
		JOINT Spine
		{
			OFFSET 0.028270 2.035590 -0.193380
			CHANNELS 3 Zrotation Yrotation Xrotation
			JOINT Spine1
			{
				OFFSET 0.056720 2.048850 -0.042750
				CHANNELS 3 Zrotation Yrotation Xrotation
				JOINT Neck
				{
					OFFSET 0.000000 0.000000 0.000000
					CHANNELS 3 Zrotation Yrotation Xrotation
					JOINT Neck1
					{
						OFFSET -0.054170 1.746240 0.172020
						CHANNELS 3 Zrotation Yrotation Xrotation
						JOINT Head
						{
							OFFSET 0.104070 1.761360 -0.123970
							CHANNELS 3 Zrotation Yrotation Xrotation
							End Site
							{
								OFFSET 0.000000 0.000000 0.000000
							}
						}
					}
				}
				JOINT LeftShoulder
				{
					OFFSET 0.000000 0.000000 0.000000
					CHANNELS 3 Zrotation Yrotation Xrotation
					JOINT LeftArm
					{
						OFFSET 3.362410 1.200890 -0.311210
						CHANNELS 3 Zrotation Yrotation Xrotation
						JOINT LeftForeArm
						{
							OFFSET 4.983000 -0.000000 -0.000000
							CHANNELS 3 Zrotation Yrotation Xrotation
							JOINT LeftHand
							{
								OFFSET 3.483560 -0.000000 -0.000000
								CHANNELS 3 Zrotation Yrotation Xrotation
								JOINT LeftFingerBase
								{
									OFFSET 0.000000 0.000000 0.000000
									CHANNELS 3 Zrotation Yrotation Xrotation
									JOINT LeftHandIndex1
									{
										OFFSET 0.715260 -0.000000 -0.000000
										CHANNELS 3 Zrotation Yrotation Xrotation
										End Site
										{
											OFFSET 0.000000 0.000000 0.000000
										}
									}
								}
								JOINT LThumb
								{
									OFFSET 0.000000 0.000000 0.000000
									CHANNELS 3 Zrotation Yrotation Xrotation
									End Site
									{
										OFFSET 0.000000 0.000000 0.000000
									}
								}
							}
						}
					}
				}
				JOINT RightShoulder
				{
					OFFSET 0.000000 0.000000 0.000000
					CHANNELS 3 Zrotation Yrotation Xrotation
					JOINT RightArm
					{
						OFFSET -3.136600 1.374050 -0.404650
						CHANNELS 3 Zrotation Yrotation Xrotation
						JOINT RightForeArm
						{
							OFFSET -5.241900 -0.000000 -0.000000
							CHANNELS 3 Zrotation Yrotation Xrotation
							JOINT RightHand
							{
								OFFSET -3.444170 -0.000000 -0.000000
								CHANNELS 3 Zrotation Yrotation Xrotation
								JOINT RightFingerBase
								{
									OFFSET 0.000000 0.000000 0.000000
									CHANNELS 3 Zrotation Yrotation Xrotation
									JOINT RightHandIndex1
									{
										OFFSET -0.622530 -0.000000 -0.000000
										CHANNELS 3 Zrotation Yrotation Xrotation
										End Site
										{
											OFFSET 0.000000 0.000000 0.000000
										}
									}
								}
								JOINT RThumb
								{
									OFFSET 0.000000 0.000000 0.000000
									CHANNELS 3 Zrotation Yrotation Xrotation
									End Site
									{
										OFFSET 0.000000 0.000000 0.000000
									}
								}
							}
						}
					}
				}
			}
		}
	}
}
MOTION
Frames: 8
Frame Time: 0.008333
-4.352513 17.482727 0.861695 -136.806435 84.751119 -134.169700 5.833126 1.181421 -0.473334 -16.949663 -24.427544 0.116090 -1.891308 5.800875 16.910106 -1.297729 15.888500 -13.716618 2.702600 -10.197300 -29.618000 -11.852473 -4.151349 -2.927883 31.310261 1.534223 6.493927 2.645915 -0.080628 3.835236 0.157515 -15.818964 -11.813235 -0.015300 0.797800 -2.192500 3.120262 0.887519 2.843944 1.714637 1.601280 -4.360749 -0.952071 0.196120 -2.082077 -0.554078 -2.704190 -19.721597 5.974029 -4.031072 6.156802 -0.130500 -1.641400 8.691600 2.747233 -1.108402 -0.399757 -88.847263 5.725854 40.274171 17.456030 -25.018287 -4.736813 -0.142010 -1.163863 -34.571757 33.477419 52.685705 28.554000 -7.125000 0.000000 0.000000 -68.938300 85.028800 -64.212200 -3.160316 0.274516 -0.580275 55.717751 69.525468 10.198028 -98.779527 59.695185 -67.948558 0.660487 -0.223126 -24.232142 -28.010586 5.845761 -3.442800 7.125000 0.000000 0.000000 -1.308000 -22.755600 -0.700400 
-4.356142 17.482530 0.861401 -137.135891 84.819998 -134.474548 5.826208 1.176586 -0.472091 -17.013520 -24.473397 0.133617 -1.902294 5.788580 16.865141 -1.303417 15.953115 -13.778266 2.668400 -10.137800 -29.424000 -11.860424 -4.149999 -2.929343 31.248866 1.579124 6.453235 2.641987 -0.080460 3.834605 0.159053 -15.811891 -11.712859 -0.024100 1.002500 -2.755800 3.071336 0.913535 2.828192 1.697499 1.633782 -4.358656 -0.983435 0.215149 -2.079195 -0.522480 -2.686226 -19.712312 5.910415 -4.020401 6.100062 -0.167300 -1.646200 8.659900 2.754180 -1.120365 -0.392205 -88.846151 5.758061 40.245762 17.453346 -25.015922 -4.735888 -0.143391 -1.163508 -34.445631 33.443222 52.725713 28.535200 -7.125000 0.000000 0.000000 -69.346700 85.014600 -64.595200 -3.168584 0.273579 -0.599600 56.466650 68.895115 11.195693 -99.360777 59.712759 -68.425113 0.668765 -0.231391 -24.036288 -28.247416 5.999143 -3.566400 7.125000 0.000000 0.000000 -1.476600 -22.553400 -0.797600 
-4.358986 17.483511 0.862284 -136.931529 84.864602 -134.236659 5.832980 1.170781 -0.477438 -17.031300 -24.494445 0.133186 -1.909744 5.778594 16.834417 -1.310703 16.014353 -13.822762 2.670600 -10.141700 -29.436700 -11.857200 -4.149929 -2.923194 31.237261 1.651703 6.406203 2.640008 -0.083072 3.831313 0.158961 -15.800669 -11.634947 -0.025100 1.022500 -2.810600 3.059065 0.942069 2.790585 1.684541 1.669100 -4.358684 -1.000165 0.232831 -2.072791 -0.576332 -2.717663 -19.714607 5.945959 -4.045300 6.072456 -0.140800 -1.658500 8.649900 2.753383 -1.125389 -0.384987 -88.824418 5.778766 40.239292 17.415971 -24.969796 -4.723277 -0.140676 -1.167577 -34.364118 33.520515 52.963998 28.679100 -7.125000 0.000000 0.000000 -72.237500 85.048100 -67.443900 -3.184313 0.281639 -0.623332 57.180244 68.230091 12.165176 -100.045213 59.714281 -68.992278 0.675518 -0.239068 -23.966449 -28.366821 6.138025 -3.665800 7.125000 0.000000 0.000000 -1.558000 -22.375500 -0.847900 
-4.361536 17.485375 0.864540 -136.342753 84.850293 -133.615275 5.847985 1.164294 -0.484688 -16.982924 -24.549162 0.129027 -1.915169 5.769446 16.812740 -1.316571 16.061436 -13.915209 2.727900 -10.241000 -29.760800 -11.844905 -4.151017 -2.912455 31.286361 1.710662 6.360363 2.640586 -0.088296 3.826617 0.156559 -15.783424 -11.617312 -0.021800 0.953800 -2.621600 3.101632 0.967484 2.760334 1.677847 1.700704 -4.361827 -1.030495 0.247433 -2.077897 -0.566188 -2.742890 -19.722899 5.973844 -4.081988 6.058385 -0.132400 -1.672100 8.647500 2.754640 -1.134827 -0.377646 -88.799421 5.765692 40.219621 17.364540 -24.905202 -4.704406 -0.137451 -1.171870 -34.354143 33.595609 53.174613 28.812700 -7.125000 0.000000 0.000000 -74.836400 85.070000 -70.008300 -3.199474 0.290591 -0.654459 57.969866 67.512288 13.221698 -100.818712 59.705414 -69.630148 0.684607 -0.250306 -23.755414 -28.543450 6.386649 -3.837000 7.125000 0.000000 0.000000 -1.674900 -22.064800 -0.923500 
-4.363399 17.485963 0.865717 -135.972294 84.854866 -133.238558 5.856720 1.157654 -0.485841 -16.994191 -24.724308 0.218037 -1.925956 5.762072 16.797184 -1.331243 16.200616 -14.130334 2.772000 -10.316500 -30.008000 -11.837519 -4.151894 -2.908615 31.308131 1.750094 6.347448 2.640968 -0.090560 3.824405 0.156501 -15.784366 -11.586490 -0.026100 1.043900 -2.869700 3.125741 0.994317 2.761121 1.666647 1.735669 -4.361015 -1.079464 0.264695 -2.087284 -0.469367 -2.730378 -19.748076 5.955815 -4.096591 6.047380 -0.162100 -1.675300 8.647800 2.760896 -1.149823 -0.368690 -88.775701 5.759969 40.163185 17.353736 -24.891971 -4.701417 -0.135841 -1.172939 -34.316255 33.506775 53.284792 28.766000 -7.125000 0.000000 0.000000 -75.929100 85.023700 -71.034100 -3.213783 0.298216 -0.692723 58.834138 66.728110 14.380436 -101.697528 59.680303 -70.356153 0.699769 -0.257098 -23.464916 -29.158911 6.572593 -4.047900 7.125000 0.000000 0.000000 -2.119800 -21.790800 -1.182200 
-4.364184 17.485178 0.866109 -135.769079 84.890297 -133.033528 5.861714 1.152121 -0.485395 -17.040058 -24.871878 0.302434 -1.934590 5.760164 16.793514 -1.345172 16.331463 -14.293141 2.754300 -10.286200 -29.908600 -11.833801 -4.151853 -2.906592 31.295737 1.794515 6.341587 2.642097 -0.090638 3.822560 0.160384 -15.823387 -11.554350 -0.027900 1.077400 -2.961700 3.118380 0.993071 2.755169 1.665501 1.732548 -4.363838 -1.086230 0.264292 -2.107107 -0.451300 -2.688478 -19.743675 5.977314 -4.046081 6.044757 -0.148600 -1.648200 8.648600 2.767590 -1.161696 -0.357553 -88.788078 5.819984 40.067377 17.392649 -24.943276 -4.720195 -0.133873 -1.174043 -34.318136 33.594774 53.385009 28.875900 -7.125000 0.000000 0.000000 -77.269400 85.049300 -72.377400 -3.230900 0.311359 -0.737383 59.865996 65.919869 15.773227 -102.654377 59.646830 -71.142952 0.716097 -0.265191 -23.275214 -29.805107 6.811526 -4.303000 7.125000 0.000000 0.000000 -2.579900 -21.446200 -1.459400 
-4.364086 17.485571 0.868070 -135.298470 84.899757 -132.521644 5.875933 1.144069 -0.487650 -17.030505 -25.010841 0.324106 -1.941002 5.762893 16.797581 -1.367352 16.490505 -14.387089 2.730900 -10.246100 -29.777400 -11.825169 -4.151266 -2.895898 31.325102 1.860418 6.296617 2.644571 -0.094327 3.817700 0.163544 -15.865533 -11.526213 -0.027000 1.061500 -2.918000 3.141209 0.972787 2.705866 1.674733 1.702578 -4.384368 -1.075923 0.250665 -2.156636 -0.487744 -2.636452 -19.712557 6.019069 -3.964454 6.079816 -0.109300 -1.605500 8.665600 2.774335 -1.175960 -0.345612 -88.824374 5.869273 39.944942 17.404854 -24.958780 -4.726702 -0.132714 -1.175037 -34.298344 33.605109 53.462559 28.908800 -7.125000 0.000000 0.000000 -78.191700 85.043800 -73.280100 -3.251410 0.332649 -0.799223 61.141546 65.005827 17.435249 -103.791221 59.593101 -72.074750 0.730117 -0.280962 -23.145119 -30.125398 7.202879 -4.600100 7.125000 0.000000 0.000000 -2.784800 -20.943300 -1.607300 
-4.364086 17.486552 0.870424 -134.886377 84.911633 -132.066887 5.889692 1.135833 -0.490118 -17.022956 -25.133122 0.331182 -1.945545 5.770289 16.812713 -1.389113 16.643110 -14.460141 2.733800 -10.251200 -29.794000 -11.816459 -4.150806 -2.885244 31.352207 1.921606 6.256573 2.646151 -0.097713 3.813332 0.164679 -15.885045 -11.507041 -0.029900 1.116800 -3.070400 3.168912 0.970156 2.663735 1.670069 1.697387 -4.405298 -1.108556 0.248597 -2.201949 -0.474586 -2.606188 -19.771245 6.034930 -3.926745 6.158358 -0.097000 -1.579300 8.724000 2.779959 -1.194521 -0.333997 -88.805982 5.878822 39.910178 17.422952 -24.978109 -4.733615 -0.135025 -1.173004 -34.229157 33.464907 53.406948 28.764500 -7.125000 0.000000 0.000000 -77.234600 84.993400 -72.286900 -3.276319 0.359075 -0.872919 62.430955 64.010315 19.040682 -104.996207 59.507064 -73.069739 0.742917 -0.293173 -22.969223 -30.413395 7.407737 -4.785000 7.125000 0.000000 0.000000 -2.980000 -20.660600 -1.739200 
